<?xml version="1.0" standalone="no"?>
<!DOCTYPE svg PUBLIC "-//W3C//DTD SVG 20010904//EN"
 "http://www.w3.org/TR/2001/REC-SVG-20010904/DTD/svg10.dtd">
<svg version="1.0" xmlns="http://www.w3.org/2000/svg"
 width="500.000000pt" height="500.000000pt" viewBox="0 0 500.000000 500.000000"
 preserveAspectRatio="xMidYMid meet">

<g transform="translate(0.000000,500.000000) scale(0.100000,-0.100000)"
fill="#000000" stroke="none">
<path d="M3130 4514 c-328 -25 -635 -128 -776 -261 -132 -125 -97 -265 96
-385 110 -69 238 -115 422 -152 384 -79 841 -49 1154 74 201 80 316 178 330
284 9 64 -11 111 -75 175 -114 114 -339 203 -624 247 -93 14 -425 25 -527 18z"/>
<path d="M495 4028 c-64 -22 -122 -77 -155 -145 -20 -42 -20 -57 -20 -1257 0
-1095 2 -1217 16 -1252 27 -63 71 -111 132 -141 l57 -28 1975 0 1975 0 57 28
c61 30 105 78 132 141 14 35 16 157 16 1250 0 1156 -1 1213 -19 1252 -25 55
-76 111 -122 135 -75 38 -69 84 -69 -556 0 -548 -1 -577 -20 -627 -66 -177
-319 -321 -695 -397 -291 -58 -737 -45 -1005 29 -140 39 -179 53 -275 101
-174 85 -273 185 -301 307 -11 44 -14 184 -14 615 l0 557 -817 -1 c-543 0
-828 -4 -848 -11z m516 -398 c12 -7 19 -21 19 -40 0 -19 -7 -33 -19 -40 -12
-6 -93 -10 -195 -10 -149 0 -177 2 -191 16 -18 18 -13 63 8 76 18 12 356 9
378 -2z m917 -2 c15 -15 15 -61 0 -76 -9 -9 -97 -12 -335 -12 l-323 0 -16 25
c-15 23 -15 27 0 50 l16 25 323 0 c238 0 326 -3 335 -12z m-463 -418 c17 -19
17 -23 1 -78 -15 -53 -51 -188 -96 -357 -10 -38 -30 -115 -45 -170 -15 -55
-30 -109 -33 -120 -8 -32 -23 -45 -51 -45 -35 0 -51 17 -51 52 0 15 31 141 68
280 38 139 79 293 92 341 13 49 30 95 37 103 21 20 57 17 78 -6z m-420 -46
c11 -12 14 -25 10 -43 -4 -14 -7 -26 -8 -26 -1 -1 -40 -32 -87 -71 -47 -39
-118 -97 -157 -128 -40 -32 -73 -59 -73 -61 0 -1 41 -36 91 -76 50 -41 110
-90 133 -109 23 -19 54 -45 70 -58 32 -25 41 -77 15 -93 -32 -20 -61 -7 -151
67 -51 42 -124 101 -163 132 -107 86 -135 114 -135 138 0 20 44 64 146 145 17
13 79 63 139 112 110 90 139 102 170 71z m833 -144 c150 -126 192 -165 192
-184 0 -26 -41 -64 -257 -239 -89 -72 -140 -107 -157 -107 -29 0 -56 33 -49
61 3 10 77 78 164 150 88 72 159 133 159 134 0 1 -68 58 -151 125 -83 68 -158
134 -166 147 -14 21 -14 25 1 48 32 49 56 37 264 -135z m-334 -946 c19 -18 21
-55 4 -72 -9 -9 -126 -12 -465 -12 l-453 0 -12 25 c-9 19 -8 29 6 50 l16 25
445 0 c390 0 445 -2 459 -16z m604 4 c16 -16 15 -63 -2 -77 -9 -8 -70 -11
-197 -9 l-184 3 -9 27 c-8 22 -6 32 9 48 17 19 30 20 195 20 123 0 180 -4 188
-12z m870 0 c18 -18 15 -75 -4 -82 -9 -3 -94 -6 -189 -6 -144 0 -176 3 -189
16 -20 19 -20 34 0 62 15 21 21 22 193 22 124 0 181 -4 189 -12z m1371 -2 c7
-8 11 -30 9 -48 l-3 -33 -80 -6 c-44 -4 -299 -6 -567 -5 -514 2 -518 3 -518
48 0 11 5 28 10 39 10 18 27 19 574 19 477 0 565 -2 575 -14z m-3081 -378 c20
-20 14 -65 -10 -82 -19 -14 -67 -16 -325 -16 -166 0 -313 4 -326 9 -33 13 -43
46 -23 76 l16 25 328 0 c242 0 331 -3 340 -12z m1800 0 c20 -20 14 -65 -10
-82 -20 -14 -109 -16 -768 -16 -812 0 -790 -2 -790 55 0 58 -37 55 794 55 579
0 765 -3 774 -12z m654 -5 c24 -21 23 -48 -2 -73 -18 -18 -33 -20 -160 -20
-162 0 -190 8 -190 55 0 52 10 55 179 55 130 0 157 -3 173 -17z m632 1 c22
-21 20 -50 -4 -74 -18 -18 -33 -20 -163 -20 -159 0 -187 9 -187 59 0 48 12 51
181 51 130 0 160 -3 173 -16z"/>
<path d="M2272 3663 c3 -181 5 -201 25 -239 70 -131 307 -247 620 -305 141
-26 484 -37 642 -20 318 33 573 121 706 243 89 81 95 102 95 326 l0 192 -62
-46 c-151 -111 -359 -185 -651 -230 -161 -25 -527 -22 -686 5 -167 29 -280 57
-376 93 -116 44 -250 121 -284 162 -8 9 -18 16 -23 16 -6 0 -8 -77 -6 -197z"/>
<path d="M4326 3249 c-39 -36 -157 -104 -248 -141 -133 -54 -324 -99 -500
-118 -125 -13 -391 -13 -516 0 -298 32 -573 123 -729 241 -29 21 -55 39 -58
39 -4 0 -5 -89 -3 -197 2 -163 6 -203 20 -228 107 -189 474 -324 926 -341 510
-19 963 111 1105 315 l32 46 3 165 c2 91 2 183 0 206 l-3 41 -29 -28z"/>
<path d="M2184 1078 c57 -199 59 -298 10 -450 l-16 -48 -173 0 c-144 0 -176
-3 -189 -16 -22 -21 -20 -61 3 -74 27 -14 1335 -14 1362 0 12 7 19 21 19 40 0
19 -7 33 -19 40 -12 6 -92 10 -190 10 l-170 0 -16 52 c-40 137 -43 250 -9 373
9 33 17 67 18 75 1 13 -41 15 -318 18 l-318 2 6 -22z"/>
</g>
</svg>
