<?xml version="1.0" standalone="no"?>
<!DOCTYPE svg PUBLIC "-//W3C//DTD SVG 20010904//EN"
 "http://www.w3.org/TR/2001/REC-SVG-20010904/DTD/svg10.dtd">
<svg version="1.0" xmlns="http://www.w3.org/2000/svg"
 width="662.000000pt" height="377.000000pt" viewBox="0 0 662.000000 377.000000"
 preserveAspectRatio="xMidYMid meet">

<g transform="translate(0.000000,377.000000) scale(0.100000,-0.100000)"
fill="#000000" stroke="none">
<path d="M1663 3718 c3 -29 11 -118 17 -198 6 -80 15 -190 20 -245 6 -55 17
-176 25 -270 8 -93 26 -294 40 -445 26 -289 50 -564 65 -765 6 -66 17 -183 25
-260 8 -77 19 -205 25 -285 6 -80 19 -226 30 -325 24 -227 28 -274 36 -410 6
-111 14 -135 42 -135 9 0 52 -11 96 -25 71 -22 152 -45 516 -149 207 -59 532
-151 605 -171 44 -12 85 -24 90 -25 11 -4 49 6 195 50 52 15 181 52 285 80
105 29 217 60 250 70 33 10 105 30 160 45 55 15 136 37 180 50 44 12 125 35
180 50 55 16 105 33 112 39 7 7 16 77 23 176 6 91 22 275 35 410 13 135 28
304 34 375 6 72 15 171 21 221 5 51 14 147 19 215 28 357 43 532 61 704 11
105 25 255 30 335 5 80 17 206 25 280 8 74 21 227 30 340 8 113 18 231 21 263
l7 57 -1653 0 -1653 0 6 -52z m1643 -430 c-4 -13 -11 -45 -16 -73 -5 -27 -21
-86 -35 -130 -14 -44 -25 -89 -25 -100 0 -11 -12 -55 -27 -97 l-26 -78 -290 0
-289 0 6 -37 c8 -56 24 -243 32 -365 l6 -108 203 0 202 0 -7 -37 c-4 -21 -19
-81 -33 -133 -14 -52 -33 -122 -43 -155 -9 -33 -20 -78 -26 -100 -25 -100 -10
-90 -136 -93 -98 -2 -112 -5 -112 -20 0 -9 9 -103 20 -207 10 -105 21 -253 22
-330 3 -128 1 -149 -25 -240 -31 -109 -72 -264 -81 -308 -6 -26 -9 -27 -49
-21 -23 4 -80 19 -127 34 -47 16 -104 31 -127 35 -24 4 -45 10 -47 13 -8 14
-79 774 -96 1017 -10 157 -47 569 -76 855 -13 135 -24 273 -24 308 0 56 -22
292 -35 365 l-4 27 635 0 636 0 -6 -22z m1264 5 c-1 -10 -5 -52 -10 -93 -6
-41 -14 -145 -19 -230 -5 -86 -18 -250 -30 -365 -29 -287 -62 -667 -71 -800
-6 -107 -30 -376 -71 -820 -11 -121 -24 -227 -28 -235 -5 -8 -39 -22 -77 -32
-38 -9 -103 -26 -144 -38 -76 -23 -127 -37 -305 -85 -55 -15 -135 -38 -178
-51 -43 -13 -86 -24 -96 -24 -10 0 -51 -12 -92 -26 -100 -36 -179 -36 -284 -2
-44 15 -96 30 -115 34 -19 3 -59 15 -90 24 -30 10 -67 20 -82 24 l-26 6 15 47
c8 27 18 68 23 93 4 25 16 72 25 105 9 33 23 85 31 115 8 30 20 72 26 92 13
42 8 42 133 8 201 -55 191 -53 269 -34 39 9 95 25 124 35 29 11 62 19 72 19
11 0 61 13 112 29 51 16 112 32 135 36 31 5 42 12 46 28 6 26 22 188 38 377 6
74 14 161 18 193 l7 57 -378 0 -377 0 5 33 c3 17 14 61 25 97 10 36 23 85 28
110 6 25 20 81 31 125 12 44 26 97 31 118 l10 37 333 0 334 0 6 43 c3 23 11
105 16 182 5 77 13 173 16 213 l7 72 -287 0 c-199 0 -286 3 -286 11 0 11 23
99 66 250 13 47 24 93 24 102 0 14 7 38 35 125 3 9 113 12 505 12 470 0 500
-1 500 -17z"/>
</g>
</svg>
