<?xml version="1.0" encoding="UTF-8"?>
<svg id="Calque_1" data-name="Calque 1" xmlns="http://www.w3.org/2000/svg" viewBox="0 0 793 873.53">
  <defs>
    <style>
      .cls-1 {
        fill: #d22;
      }

      .cls-2 {
        fill: #333;
      }
    </style>
  </defs>
  <polygon class="cls-1" points="759 210.73 720 233.25 686 252.88 647 230.36 613 210.73 584 193.99 530 162.81 501 146.07 467 126.44 428 103.92 394 84.29 360 103.92 321 126.44 360 148.95 428 188.21 457 204.96 428 221.7 394 241.33 360 221.7 331 204.96 292 182.44 258 162.81 219 185.33 175 210.73 219 236.13 248 252.88 292 278.28 311 289.25 360 317.54 428 356.8 467 379.32 428 401.83 394 421.46 360 401.83 321 379.32 292 362.57 238 331.4 219 320.43 175 295.02 146 278.28 102 252.88 73 236.13 30.75 211.74 29 210.73 73 185.33 102 168.58 146 143.18 185 120.66 219 101.03 248 84.29 292 58.89 321 42.14 360 19.63 394 0 395.29 .74 428 19.63 467 42.14 501 61.77 540 84.29 584 109.7 603 120.66 647 146.07 686 168.58 720 188.22 759 210.73"/>
  <g>
    <polygon class="cls-2" points="292 441.09 292 519.61 258 499.99 219 477.47 185 457.84 146 435.32 102 409.92 73 393.17 73 646.05 107 665.69 146 688.2 175 704.95 219 730.35 248 747.09 292 772.5 292 856.79 248 831.39 219 814.64 175 789.24 146 772.49 102 747.09 73 730.35 34 707.83 .23 688.33 0 688.2 0 272.51 .23 272.64 34 292.14 73 314.65 107 334.28 146 356.8 170 370.66 219 398.95 253 418.58 292 441.09"/>
    <polygon class="cls-2" points="360 558.88 360 766.72 321 789.24 292 772.5 292 519.61 326 539.25 360 558.88"/>
  </g>
  <polygon class="cls-2" points="793 269.62 793 348.14 749 373.54 720 390.29 686 409.92 647 432.43 603 457.84 584 468.81 530 499.99 501 516.73 501 769.61 540 747.09 584 721.69 613 704.95 647 685.31 681 665.69 720 643.17 720 558.87 749 542.13 793 516.73 793 685.31 754 707.83 686 747.09 647 769.61 613 789.24 584 805.98 540 831.39 501 853.9 467 873.53 428 851.02 428 480.35 462 460.73 501 438.21 535 418.58 584 390.29 618 370.66 647 353.91 681 334.28 720 311.77 754 292.14 793 269.62"/>
</svg>