<?xml version="1.0" encoding="UTF-8"?>
<svg id="Calque_1" xmlns="http://www.w3.org/2000/svg" viewBox="0 0 770.39 63.49">
  <defs>
    <style>
      .cls-1 {
        fill: #ffd1d9;
        stroke: #ffd1d9;
        stroke-miterlimit: 10;
        
      }
    </style>
  </defs>
  <path class="cls-1" d="M.5.5h48.47v9.23H9.77v43.99h39.2v9.27H.5V.5ZM15.05,25.86h33.93v9.23H15.05v-9.23Z"/>
  <path class="cls-1" d="M60.4.5h12.04l27.2,49.09V.5h9.27v62.49h-12.04l-27.2-48.43v48.43h-9.27V.5Z"/>
  <path class="cls-1" d="M120.34,56.18l35.46-46.45h-35.46V.5h48.65v6.9l-35.38,46.45h35.2v9.14h-48.47v-6.81Z"/>
  <path class="cls-1" d="M180.41,18.08c0-3.25.84-6.2,2.53-8.85,1.68-2.65,3.93-4.77,6.75-6.35s5.93-2.37,9.36-2.37h14.63c3.43,0,6.55.79,9.38,2.37,2.83,1.58,5.08,3.7,6.75,6.35,1.67,2.65,2.5,5.6,2.5,8.85v27.33c0,3.22-.83,6.17-2.5,8.83-1.67,2.67-3.92,4.79-6.75,6.37-2.83,1.58-5.95,2.37-9.38,2.37h-14.63c-3.43,0-6.55-.79-9.36-2.37s-5.06-3.71-6.75-6.37c-1.69-2.67-2.53-5.61-2.53-8.83v-27.33ZM189.68,45.46c0,2.29.92,4.24,2.75,5.87,1.83,1.63,4.04,2.44,6.61,2.44h14.63c2.61,0,4.82-.81,6.64-2.44,1.82-1.63,2.72-3.58,2.72-5.87v-27.42c0-2.29-.91-4.24-2.72-5.87-1.82-1.63-4.03-2.44-6.64-2.44h-14.63c-2.58,0-4.78.81-6.61,2.44-1.83,1.63-2.75,3.58-2.75,5.87v27.42Z"/>
  <path class="cls-1" d="M270.98.5h33.22c3.25,0,6.22.79,8.9,2.37,2.68,1.58,4.81,3.7,6.39,6.35,1.58,2.65,2.37,5.6,2.37,8.85v27.51c0,3.19-.79,6.11-2.37,8.75s-3.71,4.74-6.39,6.31c-2.68,1.57-5.65,2.35-8.9,2.35h-33.22V.5ZM304.21,53.72c2.34,0,4.34-.81,5.98-2.42,1.64-1.61,2.46-3.56,2.46-5.84v-27.38c0-2.31-.82-4.28-2.46-5.91s-3.63-2.44-5.98-2.44h-23.95v43.99h23.95Z"/>
  <path class="cls-1" d="M333.3.5h9.27v62.49h-9.27V.5Z"/>
  <path class="cls-1" d="M380.36,18.08c0-3.25.84-6.2,2.53-8.85,1.68-2.65,3.93-4.77,6.74-6.35s5.93-2.37,9.36-2.37h29.58v9.23h-29.58c-2.58,0-4.78.81-6.61,2.44-1.83,1.63-2.75,3.58-2.75,5.87v27.42c0,2.29.92,4.24,2.75,5.87,1.83,1.63,4.04,2.44,6.61,2.44h14.63c2.61,0,4.82-.81,6.64-2.44s2.72-3.58,2.72-5.87v-8.17h-16.96v-9.23h26.24v17.36c0,3.22-.83,6.17-2.5,8.83-1.67,2.67-3.92,4.79-6.75,6.37s-5.95,2.37-9.38,2.37h-14.63c-3.43,0-6.55-.79-9.36-2.37s-5.06-3.71-6.74-6.37c-1.69-2.67-2.53-5.61-2.53-8.83v-27.33Z"/>
  <path class="cls-1" d="M443.69.5h9.27v62.49h-9.27V.5Z"/>
  <path class="cls-1" d="M465.27,18.08c0-3.25.84-6.2,2.53-8.85,1.68-2.65,3.93-4.77,6.75-6.35s5.93-2.37,9.36-2.37h14.63c3.43,0,6.55.79,9.38,2.37s5.08,3.7,6.75,6.35c1.67,2.65,2.5,5.6,2.5,8.85v27.33c0,3.22-.83,6.17-2.5,8.83-1.67,2.67-3.92,4.79-6.75,6.37s-5.95,2.37-9.38,2.37h-14.63c-3.43,0-6.55-.79-9.36-2.37s-5.06-3.71-6.75-6.37c-1.69-2.67-2.53-5.61-2.53-8.83v-27.33ZM474.54,45.46c0,2.29.92,4.24,2.75,5.87,1.83,1.63,4.04,2.44,6.61,2.44h14.63c2.61,0,4.82-.81,6.64-2.44s2.72-3.58,2.72-5.87v-27.42c0-2.29-.91-4.24-2.72-5.87s-4.03-2.44-6.64-2.44h-14.63c-2.58,0-4.78.81-6.61,2.44-1.83,1.63-2.75,3.58-2.75,5.87v27.42Z"/>
  <path class="cls-1" d="M533.2.5l18.28,51.24L569.72.5h9.89l-22.37,62.49h-11.56L523.32.5h9.89Z"/>
  <path class="cls-1" d="M597.15.5h11.56l22.37,62.49h-9.89l-6.81-18.81h-17.45l3.34-9.23h10.77l-8.09-22.32-18.28,50.36h-9.89L597.15.5Z"/>
  <path class="cls-1" d="M638.98.5h12.04l27.2,49.09V.5h9.27v62.49h-12.04l-27.2-48.43v48.43h-9.27V.5Z"/>
  <path class="cls-1" d="M699.8.5h12.04l27.2,49.09V.5h9.27v62.49h-12.04l-27.2-48.43v48.43h-9.27V.5Z"/>
  <path class="cls-1" d="M760.62.5h9.27v62.49h-9.27V.5Z"/>
</svg>