<svg id="visual" viewBox="0 0 900 600" width="900" height="600" xmlns="http://www.w3.org/2000/svg" xmlns:xlink="http://www.w3.org/1999/xlink" version="1.1"><rect x="0" y="0" width="900" height="600" fill="#001220"></rect><path d="M0 397L21.5 398.7C43 400.3 86 403.7 128.8 403.2C171.7 402.7 214.3 398.3 257.2 399.3C300 400.3 343 406.7 385.8 410.7C428.7 414.7 471.3 416.3 514.2 409.3C557 402.3 600 386.7 642.8 389C685.7 391.3 728.3 411.7 771.2 418.5C814 425.3 857 418.7 878.5 415.3L900 412L900 601L878.5 601C857 601 814 601 771.2 601C728.3 601 685.7 601 642.8 601C600 601 557 601 514.2 601C471.3 601 428.7 601 385.8 601C343 601 300 601 257.2 601C214.3 601 171.7 601 128.8 601C86 601 43 601 21.5 601L0 601Z" fill="#fa7268"></path><path d="M0 396L21.5 406.5C43 417 86 438 128.8 443.2C171.7 448.3 214.3 437.7 257.2 440.8C300 444 343 461 385.8 459.8C428.7 458.7 471.3 439.3 514.2 428.8C557 418.3 600 416.7 642.8 424.8C685.7 433 728.3 451 771.2 453.7C814 456.3 857 443.7 878.5 437.3L900 431L900 601L878.5 601C857 601 814 601 771.2 601C728.3 601 685.7 601 642.8 601C600 601 557 601 514.2 601C471.3 601 428.7 601 385.8 601C343 601 300 601 257.2 601C214.3 601 171.7 601 128.8 601C86 601 43 601 21.5 601L0 601Z" fill="#ef5f67"></path><path d="M0 496L21.5 493.7C43 491.3 86 486.7 128.8 487C171.7 487.3 214.3 492.7 257.2 487.3C300 482 343 466 385.8 460C428.7 454 471.3 458 514.2 462C557 466 600 470 642.8 475.5C685.7 481 728.3 488 771.2 493C814 498 857 501 878.5 502.5L900 504L900 601L878.5 601C857 601 814 601 771.2 601C728.3 601 685.7 601 642.8 601C600 601 557 601 514.2 601C471.3 601 428.7 601 385.8 601C343 601 300 601 257.2 601C214.3 601 171.7 601 128.8 601C86 601 43 601 21.5 601L0 601Z" fill="#e34c67"></path><path d="M0 519L21.5 517C43 515 86 511 128.8 511.8C171.7 512.7 214.3 518.3 257.2 516.5C300 514.7 343 505.3 385.8 506.5C428.7 507.7 471.3 519.3 514.2 518.5C557 517.7 600 504.3 642.8 499.7C685.7 495 728.3 499 771.2 504.3C814 509.7 857 516.3 878.5 519.7L900 523L900 601L878.5 601C857 601 814 601 771.2 601C728.3 601 685.7 601 642.8 601C600 601 557 601 514.2 601C471.3 601 428.7 601 385.8 601C343 601 300 601 257.2 601C214.3 601 171.7 601 128.8 601C86 601 43 601 21.5 601L0 601Z" fill="#d53867"></path><path d="M0 558L21.5 559.7C43 561.3 86 564.7 128.8 560.7C171.7 556.7 214.3 545.3 257.2 539.7C300 534 343 534 385.8 534.2C428.7 534.3 471.3 534.7 514.2 540.2C557 545.7 600 556.3 642.8 557.3C685.7 558.3 728.3 549.7 771.2 543.5C814 537.3 857 533.7 878.5 531.8L900 530L900 601L878.5 601C857 601 814 601 771.2 601C728.3 601 685.7 601 642.8 601C600 601 557 601 514.2 601C471.3 601 428.7 601 385.8 601C343 601 300 601 257.2 601C214.3 601 171.7 601 128.8 601C86 601 43 601 21.5 601L0 601Z" fill="#c62368"></path></svg>